mtllib materials.mtl
v -0.2100453 -0.09406897 -0.2488407
v -0.250618 0.04349732 -0.2470113
v -0.3243417 0.01883614 -0.02761604
v -0.05246575 0.09768832 0.07260615
v 0.02125791 0.1223494 -0.1467891
v 0.06183064 -0.01521683 -0.1486185
v -0.3082729 -0.1158598 0.005295411
v -0.01679439 -0.03486672 0.124975
v 0.1448588 -0.2587587 0.2187878
v -0.2443529 0.1210039 -0.2260399
v 0.2380865 -0.2701112 -0.1326082
v -0.2148754 -0.2986956 -0.2518586
v -0.3081031 -0.2873435 0.09953748
v 0.2144786 -0.3522798 0.3019966
v 0.3205108 -0.3807382 -0.1695156
v -0.2882504 -0.4181803 -0.3041524
v -0.3942828 -0.3897223 0.1673601
v 0.3422098 -0.5124286 0.3811051
v 0.4194574 -0.5290481 -0.2687313
v -0.37851 -0.4863352 -0.3811051
v -0.4194574 -0.5179164 0.2575535
v -0.008066297 0.2297495 -0.1633167
v -0.05498914 0.2154782 0.03819045
v -0.2912757 0.1067324 -0.02453265
v -0.2315148 0.3194624 -0.2104872
v -0.04315364 0.3872001 -0.1274052
v -0.08834916 0.3281327 0.02321896
v -0.2767102 0.2603948 -0.05986308
v -0.2246234 0.4263526 -0.1715692
v -0.0945331 0.4549077 -0.1217641
v -0.1251638 0.4200734 -0.0217851
v -0.2552542 0.3915181 -0.07159029
v -0.1940367 0.5195293 -0.1118076
v -0.1317722 0.5243361 -0.08487086
v -0.1441713 0.4871897 -0.04958135
v -0.2064359 0.4823829 -0.07651813
v -0.1795716 0.5247947 -0.08749275
v -0.1838743 0.5083876 -0.06883727
v -0.1491667 0.5290481 -0.07673953
v -0.1534694 0.512641 -0.058084
vn -0.9053549 -0.26258 -0.3337429
vn 0.9053549 0.26258 0.3337429
vn -0.4001952 0.09306086 0.9116927
vn -0.9413626 0.1569107 -0.2986897
vn -0.3967682 0.2429402 0.8851866
vn 0.3167356 0.1059506 -0.9425779
vn 0.7850338 0.5595341 0.2657888
vn 0.3444142 0.00571586 -0.9388005
vn -0.9331878 0.02731235 -0.35835
vn -0.2464729 0.5353224 0.8078869
vn -0.2526592 0.4658101 0.8480473
vn -0.9583803 -0.1382309 -0.249799
vn 0.7596779 0.6244947 0.1813721
vn 0.2465499 0.1100066 -0.9628664
vn -0.9083874 -0.1983109 -0.3681102
vn -0.4142008 0.1691086 0.8943377
vn 0.8927382 0.3515747 0.2818048
vn 0.8165029 0.5419187 0.199116
vn 0.2293488 0.2686099 -0.9355469
vn -0.7827166 0.5797439 -0.2263889
vn -0.2236836 0.2823956 0.932855
vn -0.2015938 0.6532015 0.7298546
vn -0.812701 0.5413922 -0.2154337
vn 0.7386868 0.6621391 0.1261497
vn 0.1706517 0.4238976 -0.889488
vn 0.8681046 0.4674443 0.1670038
vn 0.1212417 0.6682134 -0.7340241
vn -0.5015413 0.8494369 -0.1640529
vn 0.01505005 -0.9987137 -0.04842011
vn -0.1336751 0.5876804 0.7979741
vn -0.9864127 0.1545923 -0.05559903
vn 0.7614928 0.6439294 0.07405205
vn 0.1421917 0.6141651 -0.776262
vn 0.3572367 -0.04602056 -0.9328795
vn 0.9375134 0.1159377 0.3280658
vn -0.3978135 0.2494438 0.8829055
vn -0.9720474 0.08017455 -0.2206715
vn -0.9169617 0.3515718 -0.188623
vn -0.287866 0.07480084 0.954745
vn 0.1403048 0.2480162 -0.9585419
vn 0.9274666 0.2896246 0.2364813
vn 0.1394782 0.249639 -0.9582413
vn 0.9226568 0.3046436 0.236425
vn -0.2759655 0.04587036 0.9600724
vn -0.9618405 0.146214 -0.2312666
vn -0.9603462 0.02723135 -0.2774775
vn -0.4627371 0.240071 0.85337
vn 0.38894 0.04694302 -0.9200664
vn 0.9339007 0.1323643 0.3321283
vn 0.2933545 0.2982838 -0.9082786
vn 0.7498036 0.5078439 0.4241336
vn -0.461578 0.2340208 0.8556752
vn -0.9096186 0.3901507 -0.1427466
vn -0.9595813 0.13493 -0.2469772
vn -0.3812343 0.1440545 0.9131861
vn 0.279005 0.3126032 -0.9079843
vn 0.7421684 0.5288925 0.4116538
vn 0.1950388 0.5397684 -0.8189079
vn 0.8293893 0.3974768 0.3925884
vn -0.3944715 0.2597375 0.8814356
vn -0.7572779 0.5646093 0.3282477
vn -0.8595065 0.4723692 0.195233
vn 0.3302022 0.4304083 -0.8400686
vn 0.8465736 0.1898323 0.4972695
vn 0.08374889 0.9294063 -0.3594304
vn 0.593115 0.441584 0.6732149
vn -0.4023097 0.1544863 0.9023752
vn -0.311851 0.7479721 0.5859069
vn -0.3349347 0.01230789 0.942161
vn -0.07881264 0.9829764 -0.1659696
vn 0.4653024 0.608688 0.642645
vn -0.05608977 -0.9982476 0.01886258
vt -0.03390165 0.04962919
vt -0.04774245 0.05339377
vt -0.05385142 0.03093366
vt 0.05385142 0.03093366
vt 0.04774245 0.05339377
vt 0.03390165 0.04962919
vt 0.05391821 -0.006360722
vt 0.041864 0.02385722
vt 0.01274808 0.02555002
vt -0.02555657 0.04000924
vt -0.01119448 0.05832608
vt -0.01807794 0.06250713
vt 0.06609277 0.004523591
vt 0.05331637 0.03169988
vt 0.03945274 0.02683598
vt -0.04969206 -0.0141412
vt -0.04353713 0.01525103
vt -0.05757625 0.01819092
vt -0.06373118 -0.01120132
vt 0.04257656 0.002169598
vt 0.04715554 0.03033425
vt 0.01681686 0.03685348
vt -0.04594126 0.0194921
vt -0.0542594 -0.009362621
vt -0.03706506 -0.02047115
vt -0.01245535 0.0510304
vt -0.02712066 0.02796493
vt 0.003953358 0.03879116
vt 0.03621308 -0.01253565
vt 0.00755395 0.02462314
vt -0.006757166 0.02402304
vt 0.008705111 0.02504613
vt 0.03674046 -0.01258552
vt 0.05321018 -0.002019972
vt -0.03204725 0.03190297
vt -0.02220075 0.01499354
vt -0.001951447 0.04520877
vt 0.01961252 0.03277382
vt 0.01105307 -0.002577702
vt 0.04009397 -0.005266211
vt -0.0298388 -0.02228358
vt -0.01179807 0.02103679
vt -0.04251637 0.01664107
vt -0.05076657 0.0325031
vt -0.03937737 0.0244328
vt -0.02977822 0.05002465
vt 0.04052257 0.02587824
vt 0.05407358 -0.003698749
vt 0.06645482 0.002747056
vt 0.038027 0.04533496
vt 0.04331147 0.01729413
vt 0.05598797 0.02472139
vt 0.0139308 -0.0008243147
vt 0.01632837 0.03546957
vt 0.00380522 0.04233347
vt -0.007619143 0.01777721
vt -0.02093548 -0.02722053
vt -0.0121659 -0.03934678
vt 0.03148913 0.01843393
vt 0.0007127094 -0.0009517885
vt 0.04223706 0.008020787
vt 0.03141146 -0.02693717
vt -0.001977041 0.02584921
vt -0.02386506 0.02761701
vt -0.008413068 0.02237923
vt 0.02941878 -0.02731932
vt 0.03516019 -0.01345862
vt 0.0002841044 0.001012875
vt -0.0001916536 -0.01398234
vt 0.04176958 0.01016351
vt 0.0113447 0.03979756
vt -0.005289146 -0.005667598
vt 0.00898433 -0.00446925
vt 0.0003169039 -0.04022054
vt 0.01114346 0.0212935
vt -0.002481639 0.01701575
vt 0.004017686 -0.006794581
vt -0.0004998242 0.04140663
vt -0.01758284 0.05256327
vt 0.01827694 0.02386377
vt 0.02145543 -0.03851483
vt 0.03031011 -0.04894222
vt 0.04958707 -0.006131941
vt 0.006550281 -0.02830405
vt 0.06049682 -0.01438501
vt -0.009253158 -0.04277442
vt 0.0292135 0.0241183
vt -0.06761303 -0.01632232
vt -0.02779923 0.02348653
vt 0.01851543 -0.03823277
vt 0.03050142 -0.02782317
vt -0.002825692 0.004916441
vt -0.003536916 -0.01094287
vt 0.04864505 0.02624087
vt 0.001340942 0.05558026
vt -0.02701201 -0.003423276
vt -0.005384597 -0.007226621
vt 0.02471133 -0.05085646
vt 0.03606363 0.02903826
vt 0.01673452 0.02250483
vt -0.06968839 -0.002443311
vt -0.06033576 0.02609289
vt -0.07114515 0.02922904
vt 0.03831519 0.06073578
vt 0.04810347 0.03961788
vt 0.05663977 0.04843742
vt 0.05315607 0.03187426
vt 0.06603196 0.00474498
vt 0.06340002 0.03863549
vt -0.03131978 0.05182957
vt -0.01769465 0.06746485
vt -0.03263797 0.08067932
vt 0.00222308 0.05932801
vt -0.01384338 0.0462141
vt -0.008755472 0.03831477
vt 0.06607428 -0.003714272
vt 0.07175003 0.003773856
vt 0.06778622 0.03023515
vt -0.06149501 0.01586105
vt -0.05974049 -0.0108379
vt -0.05260522 -0.014573
vt 0.06320214 0.03804292
vt 0.0573042 0.05792557
vt 0.04711307 0.05314862
vt -0.0596321 -0.01089788
vt -0.06141631 0.01579909
vt -0.07765551 0.01886554
vt 0.05848747 0.05650009
vt 0.06391142 0.03648294
vt 0.0748684 0.0409802
vt 0.06806391 0.02894574
vt 0.07153942 0.002415898
vt 0.07957216 0.03174592
vt -0.03553762 0.06434722
vt -0.02810819 0.07941362
vt -0.03812032 0.08485729
vt -0.04213738 0.07733913
vt -0.04775543 0.06150783
vt -0.03845116 0.04869551
vt 0.06984176 0.01521979
vt 0.08158185 0.02584502
vt 0.07248242 0.04551504
vt -0.08502863 0.03005859
vt -0.08973501 0.008902987
vt -0.07358 -0.002799182
vt 0.06754293 0.05342586
vt 0.06486931 0.0700103
vt 0.04882855 0.06603432
vt -0.0777929 -0.01142153
vt -0.07796708 0.01025056
vt -0.08619649 0.008051322
vt 0.08504374 0.03348567
vt 0.0797013 0.01755925
vt 0.09012072 0.02068553
vt 0.07272255 0.04525497
vt 0.08174394 0.02554903
vt 0.08329004 0.0478368
vt -0.01860881 0.07209722
vt -0.01178031 0.0807486
vt -0.02171157 0.08651567
vt -0.04052029 0.08402523
vt -0.04557488 0.07423104
vt -0.03756494 0.06356554
vt 0.08424421 0.01824619
vt 0.09386171 0.02748826
vt 0.08772392 0.04031488
vt -0.08529671 0.00713963
vt -0.08673092 -0.00700736
vt -0.07658496 -0.01219732
vt 0.08992263 0.01812273
vt 0.09333373 0.02860315
vt 0.08517399 0.03104828
vt -0.06609355 -0.02378697
vt -0.06779253 -0.009669329
vt -0.07631398 -0.01142048
vt 0.09072373 0.0437466
vt 0.08917186 0.03283485
vt 0.09597004 0.03602387
vt 0.08440656 0.04563364
vt 0.09136386 0.03323241
vt 0.09562545 0.04263868
vt 0.09151392 0.04805617
vt 0.03868973 0.0741574
vt 0.04173889 0.07845765
vt 0.03898347 0.07928796
vt 0.03730869 0.07740321
vt 0.02270825 0.0882976
vt 0.02013413 0.08369724
vt 0.0221092 0.07356124
vt -0.08752325 -0.007592107
vt -0.08825587 -0.01435368
vt -0.07904401 -0.02121157
vt 0.08880768 0.05358562
vt 0.09077619 0.05847586
vt 0.08225699 0.06023788
vt -0.003904593 -0.03064955
vt -0.007551395 -0.02490878
vt -0.008189821 -0.02677996
vt 0.1004172 0.03576549
vt 0.09730559 0.03151025
vt 0.1000745 0.0321415
vt 0.0943118 0.04364762
vt 0.09813818 0.03802494
vt 0.0970739 0.0443079
vt 0.07135522 0.04333608
vt 0.07326503 0.04498228
vt 0.07114119 0.04744624
vt 0.06923138 0.04580004
vt 0.1003197 0.0270242
vt 0.1012796 0.0304185
vt 0.09994642 0.03338572
vt 0.01093396 -0.00519424
vt 0.01279233 -0.007864125
vt 0.01556158 -0.008647079
vt 0.09713945 0.02180655
vt 0.09886377 0.02364613
vt 0.09789218 0.02536803
vt 0.02878516 0.02459275
vt -0.02979703 0.05380633
vt -0.06726124 -0.01766726
o group903375804
g mesh903375804
usemtl mat17
f 3/3/1 2/2/1 1/1/1
f 6/6/2 5/5/2 4/4/2
f 9/9/3 8/8/3 7/7/3
f 10/12/4 2/11/4 3/10/4
f 8/15/5 4/14/5 3/13/5
f 2/19/6 5/18/6 6/17/6 1/16/6
f 11/22/7 6/21/7 8/20/7
f 12/25/8 1/24/8 6/23/8
f 12/28/9 7/27/9 1/26/9
f 14/31/10 9/30/10 13/29/10
f 7/34/11 13/33/11 9/32/11
f 12/37/12 13/36/12 7/35/12
f 8/40/13 9/39/13 11/38/13
f 6/43/14 11/42/14 12/41/14
f 1/46/15 7/45/15 3/44/15
f 3/49/16 7/48/16 8/47/16
f 4/52/17 8/51/17 6/50/17
f 15/55/18 11/54/18 9/53/18
f 16/58/19 12/57/19 11/56/19
f 16/61/20 13/60/20 12/59/20
f 18/64/21 14/63/21 17/62/21
f 13/67/22 17/66/22 14/65/22
f 16/70/23 17/69/23 13/68/23
f 9/73/24 14/72/24 15/71/24
f 11/76/25 15/75/25 16/74/25
f 19/79/26 15/78/26 14/77/26
f 20/82/27 16/81/27 15/80/27
f 20/85/28 17/84/28 16/83/28
f 20/88/29 18/87/29 21/86/29
f 17/91/30 21/90/30 18/89/30
f 20/94/31 21/93/31 17/92/31
f 14/97/32 18/96/32 19/95/32
f 15/100/33 19/99/33 20/98/33
f 22/103/34 5/102/34 2/101/34
f 23/106/35 4/105/35 5/104/35
f 23/109/36 3/108/36 4/107/36
f 25/112/37 10/111/37 24/110/37
f 3/115/38 24/114/38 10/113/38
f 23/118/39 24/117/39 3/116/39
f 2/121/40 10/120/40 22/119/40
f 5/124/41 22/123/41 23/122/41
f 26/127/42 22/126/42 10/125/42
f 27/130/43 23/129/43 22/128/43
f 27/133/44 24/132/44 23/131/44
f 29/136/45 25/135/45 28/134/45
f 24/139/46 28/138/46 25/137/46
f 27/142/47 28/141/47 24/140/47
f 10/145/48 25/144/48 26/143/48
f 22/148/49 26/147/49 27/146/49
f 30/151/50 26/150/50 25/149/50
f 31/154/51 27/153/51 26/152/51
f 31/157/52 28/156/52 27/155/52
f 33/160/53 29/159/53 32/158/53
f 28/163/54 32/162/54 29/161/54
f 31/166/55 32/165/55 28/164/55
f 25/169/56 29/168/56 30/167/56
f 26/172/57 30/171/57 31/170/57
f 34/175/58 30/174/58 29/173/58
f 35/178/59 31/177/59 30/176/59
f 35/182/60 36/181/60 32/180/60 31/179/60
f 38/186/61 37/185/61 33/184/61 36/183/61
f 32/189/62 36/188/62 33/187/62
f 29/192/63 33/191/63 34/190/63
f 30/195/64 34/194/64 35/193/64
f 39/198/65 34/197/65 33/196/65
f 40/201/66 35/200/66 34/199/66
f 40/204/67 36/203/67 35/202/67
f 40/208/68 39/207/68 37/206/68 38/205/68
f 40/211/69 38/210/69 36/209/69
f 33/214/70 37/213/70 39/212/70
f 34/217/71 39/216/71 40/215/71
f 20/220/72 19/219/72 18/218/72
