mtllib materials.mtl
v -0.05046697 0.6442468 -0.2817563
v -0.03566708 0.1890042 -0.2331366
v 0.0237863 0.07867521 -0.2850435
v -0.1862596 0.06495577 -0.3343783
v -0.1607594 -0.1053473 -0.1913779
v -0.2467544 0.01731318 -0.1901616
v -0.1232227 0.09296072 -0.1533844
v -0.2054288 0.1570963 -0.1212039
v -0.1016995 0.1278504 -0.1058483
v -0.1796333 0.1853768 -0.07145432
v -0.07759184 0.05799228 -0.01561287
v -0.1262596 0.07580733 0.1035626
v -0.009376148 0.08169657 -0.02204925
v 0.003444388 0.07470953 0.03692719
v 0.01599798 0.2753785 -0.1753308
v 0.05184889 0.08809388 -0.05917686
v 0.03006467 0.284726 -0.2056182
v 0.1805553 0.2012447 -0.2205868
v 0.1757533 0.1950341 -0.1667804
v 0.04833013 -0.0136587 -0.2007614
v 0.3007969 -0.151138 -0.1428094
v 0.03501529 -0.05369651 -0.3349042
v -0.1719645 -0.5863845 -0.2746993
v -0.2881127 -0.5467206 -0.1316327
v -0.3297156 -0.4975227 0.0455125
v -0.2856256 -0.4519733 0.2092704
v -0.1676567 -0.4222773 0.3157624
v -0.007418567 -0.4163918 0.3364538
v 0.1521531 -0.4358937 0.2658005
v 0.4185314 -0.4961735 -0.06665364
v 0.3769285 -0.4469756 0.1104915
v 0.1153238 -0.2523353 -0.1901943
v 0.2173054 -0.6156619 -0.1741086
v 0.02170966 -0.6442468 -0.4386949
v 0.1819478 -0.6383612 -0.4180035
v -0.1905034 -0.1215041 -0.3844298
v -0.002641518 -0.1208417 0.111483
v 0.1045916 -0.3502011 0.4386949
v -0.1088077 -0.1084656 0.09923935
v -0.1474711 -0.1565878 0.2313948
v -0.1313934 0.03424084 -0.05497408
v -0.2452842 0.02866572 0.03108662
v -0.1605771 -0.01385725 -0.1174041
v -0.2110366 -0.2795948 -0.1677914
v -0.2747636 -0.1602899 -0.1567114
v -0.2260907 -0.5086578 -0.4294826
v -0.1929187 -0.07772928 -0.2700246
v -0.2015389 -0.2587531 -0.2642382
v -0.130974 0.4458841 -0.2714521
v -0.360492 -0.1918342 -0.1438962
v -0.3009138 -0.3123357 -0.1625334
v -0.2930888 -0.2869524 -0.2580375
v -0.2648699 -0.376148 -0.4157723
v -0.2582314 -0.3935552 -0.3184095
v -0.3541975 -0.5058984 0.2110757
v -0.4185314 -0.5207782 0.04836398
v -0.2814909 -0.007677436 -0.03547817
v -0.2512253 0.1056412 -0.05399489
v -0.2243154 0.1315839 -0.003566295
v -0.2054288 0.1570963 -0.1212039
v -0.1308945 0.5011834 -0.1846491
v -0.230169 0.04288429 -0.1001446
v -0.2349849 -0.03468275 -0.188478
v -0.1144967 0.4220638 -0.1941292
v -0.1775655 0.06191343 0.05684316
v -0.1500849 0.166676 0.03443214
v -0.06561148 0.4230961 -0.1243206
v -0.2193629 -0.497053 0.3979433
v -0.3690802 -0.4728869 0.3419093
v -0.1775223 0.02299374 0.1241362
v -0.109337 0.0240078 0.1430509
v -0.04755231 -0.4048319 0.4360927
v -0.09843715 -0.1262329 0.1741449
v -0.001154467 -0.09729218 0.1810771
v -0.0002108188 -0.02792537 0.06698477
v -0.01099635 -0.03858799 0.1073458
v -0.05045345 0.02294189 0.06415465
v -0.01567599 0.4695015 -0.1703396
v -0.08774595 0.04261273 -0.3788481
vn -0.7484097 -0.09444227 -0.6564783
vn 0.5937582 -0.06633998 -0.8019041
vn 0.1513396 0.096346 0.9837753
vn 0.4562716 0.1442503 0.8780706
vn 0.5282495 0.2263618 0.8183599
vn 0.9252072 0.1205359 0.3598093
vn 0.9760904 -0.02820321 -0.2155277
vn 0.3018037 0.6463981 0.7007739
vn 0.831929 0.2869302 0.4749371
vn 0.4909435 0.8593741 0.143006
vn 0.1311571 -0.1707864 -0.9765397
vn 0.9812126 0.135111 -0.1377207
vn 0.0008111224 -0.9634812 0.2677746
vn 0.3018037 0.6463981 0.7007739
vn 0 0 0
vn 0.6854581 0.5758113 0.4456329
vn 0.3003758 -0.1067089 -0.9478331
vn 0.9504459 0.2591774 -0.1716969
vn 0.1247291 0.0807614 -0.9888986
vn -0.6671324 -0.1962299 -0.7186294
vn 0.7346902 -0.418377 -0.5340328
vn 0.9577894 0.01833071 0.2868859
vn 0.5776271 0.240686 0.780011
vn -0.8860556 0.3748212 -0.2727905
vn -0.6861636 0.2622213 -0.6785423
vn 0.2669474 0.05322609 0.9622401
vn 0.9952065 -0.09443682 0.02541196
vn -0.9989476 0.03164779 -0.03319919
vn -0.9279848 0.1883235 0.3215252
vn 0 0 0
vn -0.6773415 0.309571 0.6673638
vn -0.1686886 0.01726946 -0.9855181
vn 0.222517 0.1464445 0.9638673
vn -0.3244004 0.577166 -0.749429
vn -0.9981747 0.04629237 -0.03878618
vn 0.07696199 -0.05136376 0.9957101
vn 0.3286757 -0.9292992 -0.1684501
vn -0.8922508 -0.412866 -0.1828393
vn -0.2523985 0.6648225 -0.7030691
vn 0.2727174 -0.9351259 -0.2261965
vn 0.1716351 -0.06715479 0.9828691
vn -0.9467589 0.2518009 0.2006089
vn -0.8867107 0.4621545 0.01254922
vn -0.9592208 -0.2822631 0.01493749
vn -0.3257552 -0.7020481 0.6332552
vn -0.9613944 0.2519692 0.1105996
vn 0.03331875 0.1125026 -0.9930927
vn -0.3989685 0.5323284 0.7466262
vn 0.2542916 -0.9472616 0.1950162
vn -0.5619192 -0.08079315 -0.8232371
vn -0.6156016 -0.04964331 -0.7864923
vn -0.2889584 0.8294835 -0.4779751
vn 0 0 0
vn 0.6377205 0.1259316 0.7599038
vn -0.2507 0.9087282 -0.3337103
vn 0.5918193 0.1463186 0.7926794
vn 0.60654 -0.7769343 -0.1687675
vn 0.01132635 -0.1641994 -0.9863622
vn -0.5603659 0.01434637 -0.8281209
vn -0.2939736 -0.7021801 0.6484773
vn -0.4562716 -0.1442503 -0.8780706
vn -0.9098704 0.257129 0.3256078
vn 0.3707508 0.1774185 0.9116285
vn -0.4935745 -0.5462206 0.6767771
vn -0.1330774 -0.0993154 -0.9861171
vn 0 0 0
vn 0.6072109 0.1833866 0.7730874
vn -0.8175122 0.07172138 -0.5714279
vn -0.2992036 -0.7545481 0.5840671
vn 0.8350517 -0.3926415 -0.3853845
vn -0.9652725 0.2538731 -0.06162293
vn 0.415106 0.07722685 0.9064894
vn -0.3996712 -0.6778771 0.6170459
vn 0.1865788 -0.932936 0.3079267
vn -0.9308066 0.1049861 -0.35011
vn -0.9465693 -0.01581538 -0.3221124
vn -0.6838245 0.3196845 0.6558856
vn 0.3874854 -0.5521022 -0.7382671
vn -0.2752569 0.5699825 0.7741793
vn 0.09601147 -0.9779615 0.1853999
vn -0.9004802 0.1487885 -0.4086532
vn 0.5815575 0.3852937 0.7164773
vn 0.2437386 -0.9698409 0.0004394797
vn -0.955986 0.1754274 -0.2351935
vn -0.3791573 0.9244847 -0.03959756
vn 0 0 0
vn 0.9777957 -0.1237325 0.1691328
vn -0.06885087 0.9782331 0.1957541
vn 0.964165 -0.07982372 0.2530098
vn 0.1114877 -0.7689487 -0.6295145
vn -0.8491854 0.1003434 -0.518474
vn 0.02051107 -0.9921489 0.123369
vn -0.9275231 0.3139162 0.2028733
vn 0.08811715 0.9718891 0.2183278
vn -0.2425092 0.6406749 0.7285088
vn 0.9527923 0.2808413 -0.1153909
vn -0.2514584 0.9184207 -0.305405
vn 0.3247233 -0.9156275 0.2370255
vn -0.6658578 0.4428963 0.6003968
vn 0.9356472 -0.1720553 -0.308158
vn -0.1100173 0.03877879 0.9931729
vn -0.7591724 0.4600591 0.4604377
vn -0.8888551 0.2228661 0.4003339
vn -0.08797343 0.5339004 0.8409585
vn 0.5574111 -0.3646005 -0.7458951
vn -0.3343973 0.4584307 0.8234195
vn 0.9697872 -0.09973773 -0.2226325
vn 0.9524229 0.1110177 0.2838412
vn -0.3438286 0.3817455 0.8579349
vn 0.8133538 0.2917707 0.5033146
vn 0.2327526 0.2511123 0.9395578
vn 0.04000776 -0.1161696 -0.9924234
vn 0.9810961 0.129642 -0.1436783
vn -0.3506274 0.2502296 -0.9024664
vn 0.8558409 0.1786771 -0.4853977
vn -0.06727883 0.07596 -0.9948385
vn -0.4220759 0.189632 -0.8865052
vn -0.007245007 -0.9456531 0.3250966
vn -0.1019932 -0.9890317 0.1068353
vn 0.9512842 0.2621366 -0.1623053
vn -0.1411748 0.7231704 -0.6760875
vn -0.9862612 -0.07417168 -0.1476053
vn -0.8773673 0.1021635 -0.4688169
vn -0.2584836 -0.3679436 0.8931986
vn 0.4314775 0.08133314 -0.8984498
vn 0.235606 0.02311669 -0.9715737
vn 0.04866455 -0.9593837 0.2778753
vn 0.09836724 -0.9723617 0.2117464
vn 0.5171186 0.4707594 0.7148245
vn 0.1247297 0.5578852 0.8204917
vn 0.0007771844 0.4648648 0.8853813
vn 0.9621517 0.04447274 0.2688611
vn 0.3018037 0.6463981 0.7007739
vn 0.3018037 0.6463981 0.7007739
vn -0.1926655 0.5616336 0.8046414
vn -0.7730761 0.08974489 -0.6279325
vn -0.9289392 0.2415798 -0.2805552
vt -0.1389698 0.05815657
vt -0.09897397 0.03582669
vt -0.08559071 0.0380411
vt -0.1101779 0.1020435
vt -0.07757312 0.05199551
vt -0.0741822 0.07371328
vt 0.1372514 0.06058206
vt 0.07523454 0.01612813
vt 0.09005921 0.01397153
vt 0.1391896 0.05408069
vt 0.09347866 0.01991338
vt 0.1029938 0.01457209
vt 0.1385067 0.04917205
vt 0.09493229 0.0159514
vt 0.1036261 0.01046712
vt 0.1340706 0.06845179
vt 0.09571864 0.01666617
vt 0.1036882 0.006401035
vt 0.04093739 0.1451801
vt 0.05266896 0.08420176
vt 0.05835172 0.08205228
vt 0.075307 0.01794041
vt 0.05464437 0.009986649
vt 0.05572482 0.002887663
vt 0.1398548 0.04034526
vt 0.1052727 0.02553134
vt 0.1054453 0.02206782
vt 0.02563627 -0.02819793
vt 0.02142573 -0.03163872
vt 0.03506606 -0.04267153
vt -0.06676673 0.04752161
vt -0.04141986 0.06227018
vt -0.07869501 0.06984461
vt 0.05313853 0.07714424
vt 0.04213265 0.06818796
vt 0.05574881 0.06467424
vt 0.009671827 -0.02045446
vt 0.02181258 -0.03487385
vt 0.03894926 -0.04272566
vt 0.0564901 -0.04190598
vt 0.06973509 -0.03263446
vt 0.07513519 -0.01739539
vt 0.07124348 -0.0002720699
vt 0.05572482 0.002887663
vt 0.05464437 0.009986649
vt -0.003165842 -0.01226649
vt 0 0
vt 0 0
vt 0 0
vt 0 0
vt 0 0
vt 0.08923091 -0.005977636
vt 0.0111881 -0.04240326
vt 0.06802911 -0.01803628
vt 0.08834533 -0.009326985
vt -0.04158999 0.04548454
vt -0.00305812 0.05896924
vt -0.03941951 0.06702875
vt 0.05005632 0.05957694
vt 0.02785158 0.002516883
vt 0.04910729 0.03373942
vt 0.0630706 0.05425013
vt -0.01914021 0.009350665
vt -0.01261928 0.02414485
vt -0.07169215 0.03775651
vt -0.07484826 0.01885462
vt -0.03346599 -0.005072149
vt -0.01824027 0.01603947
vt 0.01578047 0.06475348
vt 0.04321147 0.03970581
vt 0.05493393 0.05138447
vt 0.09359615 0.0298542
vt 0.0876611 0.01027074
vt 0.09224616 -0.003576061
vt 0.0952418 0.01402086
vt 0.08833195 0.005384858
vt 0.09315325 -0.008062878
vt -0.06782895 0.04204021
vt -0.05281668 -0.009027372
vt -0.03555767 -0.001480432
vt -0.0482196 0.02318402
vt -0.05647903 0.03927277
vt -0.06180599 0.006322575
vt -0.0436052 -0.01459131
vt -0.03019007 -0.001367702
vt 0.07684339 0.01409751
vt 0.0634339 0.001661728
vt 0.07698773 0.0009767914
vt 0.04544165 0.03772703
vt 0.0358403 0.0628523
vt 0.01101088 0.03259768
vt -0.04055357 0.06177079
vt -0.05561946 0.07385066
vt -0.05236762 0.05852509
vt 0.004671711 0.08802606
vt -0.005605294 0.146867
vt -0.0009785134 0.07341365
vt 0 0
vt 0 0
vt 0 0
vt 0 0
vt 0.04396526 0.06137907
vt 0.06451051 0.1015631
vt 0.0706998 0.1220825
vt -0.139391 0.05870023
vt -0.1249493 0.04286385
vt -0.08027432 0.01485946
vt 0.07515724 0.001283438
vt 0.08978291 0.0122631
vt 0.07495587 0.01440341
vt -0.05354988 -0.001488916
vt -0.06893753 -0.006911945
vt -0.06864486 -0.01613152
vt -0.05192434 0.05848866
vt -0.04177326 0.04346434
vt -0.04009114 0.06166384
vt 0.07713944 0.003714283
vt 0.06358683 0.00442283
vt 0.0644751 -0.005115842
vt 0.005614115 -0.00310492
vt -0.003144973 0.001536642
vt 0.003054671 -0.01233664
vt -0.0656253 -0.004521203
vt -0.0777729 -0.0154127
vt -0.06424445 -0.01433746
vt -0.06493401 -0.02090413
vt -0.04953217 -0.01552155
vt -0.05015537 -0.00594231
vt -0.007893113 -0.000536438
vt -0.01051724 -0.009770302
vt -0.001776642 -0.01444658
vt 0.06496825 -0.006743921
vt 0.07852946 -0.007262332
vt 0.07774134 0.001928158
vt -0.004130094 0.06781711
vt -0.01281347 0.05173452
vt 0.005302078 0.04282518
vt -0.02228719 0.03872856
vt -0.03046552 0.03312672
vt -0.003350906 0.03173096
vt -0.04667547 0.02489216
vt -0.03076721 0.02851371
vt -0.04340115 0.03424869
vt 0.02018743 -0.03106439
vt 0.03639153 -0.03296593
vt 0.05466318 -0.0262467
vt -0.0293911 0.04386061
vt -0.01101912 0.03742074
vt -0.002295843 0.04212926
vt -0.05506044 -0.005091581
vt -0.04134233 -0.007169985
vt -0.07521202 0.01244342
vt 0.03760703 0.0459667
vt 0.001343001 0.001412356
vt 0.001772147 -0.007302493
vt 0.05594854 -0.03401411
vt 0.03840401 -0.03475075
vt 0.03620892 -0.04367003
vt -0.05327651 -0.02996505
vt -0.08754874 0.0114624
vt -0.09425844 -0.001525354
vt -0.08810289 0.01231077
vt -0.09551883 0.0215846
vt -0.103666 0.007518266
vt -0.06432447 0.005343588
vt -0.07029542 0.007280042
vt -0.07285213 -0.008495356
vt 0 0
vt 0 0
vt 0 0
vt 0 0
vt 0 0
vt 0 0
vt 0.09730937 -0.003487905
vt 0.105187 0.004275434
vt 0.09827325 0.01867342
vt -0.0570935 0.002491824
vt -0.06489315 -0.01144617
vt -0.05892278 -0.01338437
vt 0.05466288 -0.04357668
vt 0.09619567 -0.003887924
vt 0.09093654 0.0093947
vt 0.02457936 -0.01996999
vt 0.04209844 -0.01877175
vt 0.04432995 -0.01033652
vt -0.08353066 0.01366456
vt -0.04468267 -0.02350605
vt -0.04242874 -0.01460146
vt -0.1038625 0.009146179
vt -0.09524412 0.0009777058
vt -0.088264 0.01382216
vt 0.08683678 -0.01889472
vt 0.08122773 -0.02171264
vt 0.08875753 -0.02961012
vt -0.09347866 0.01991338
vt -0.1391896 0.05408069
vt -0.1029938 0.01457209
vt -0.009706324 0.1274312
vt -0.01875097 0.09475987
vt -0.01320039 0.09182846
vt 0.09186736 0.0208127
vt 0.08399086 0.0119267
vt 0.09218176 0.007862894
vt 0.08610015 -0.009357398
vt 0.07479197 -0.01260561
vt 0.0825966 -0.01925398
vt -0.07499723 0.01653737
vt -0.1369472 0.06108446
vt -0.08465607 0.01309935
vt 0 0
vt 0 0
vt 0 0
vt 0.1057761 0.01109442
vt 0.1310747 0.03365999
vt 0.139623 0.05070645
vt -0.1318161 0.07314775
vt -0.1263408 0.05488093
vt -0.1021456 0.02853025
vt 0.08105128 -0.03817189
vt 0.08663087 -0.03529607
vt 0.08014236 -0.02732373
vt 0.001808606 0.08357685
vt -0.004087674 0.1119173
vt -0.01193102 0.1353676
vt -0.07734765 0.1224273
vt -0.07383985 0.09795018
vt -0.05146889 0.05634238
vt 0.09470013 0.009103568
vt 0.1037722 0.0167649
vt 0.0942249 0.02204847
vt 0.07129103 -0.03541983
vt 0.08292091 -0.03363881
vt 0.07704134 -0.02663625
vt 0.05983599 -0.003891165
vt 0.0545126 -0.008553985
vt 0.06506673 -0.0150822
vt -0.08840426 0.03370016
vt -0.09182505 0.044218
vt -0.1043985 0.03543284
vt -0.09522828 0.03839272
vt -0.1259362 0.08377291
vt -0.1071595 0.02875326
vt 0.0172624 0.07773119
vt 0.02260594 0.07309148
vt 0.02771857 0.082899
vt -0.02800104 0.04633882
vt -0.05892806 0.07472374
vt -0.08064388 0.09108384
vt 0.08882689 0.0806295
vt 0.06678547 0.06471078
vt 0.04615964 0.04114238
vt 0.05203937 -0.02357625
vt 0.05797828 -0.01972791
vt 0.04745214 -0.01210641
vt -0.104731 0.03370343
vt -0.09857093 0.02451759
vt -0.088726 0.03207303
vt 0.06808715 -0.01648479
vt 0.04137385 -0.044317
vt 0.03650841 -0.05556483
vt 0.06028912 -0.02631252
vt 0.0463861 -0.03456458
vt 0.05631858 -0.04686486
vt -0.07021587 -0.01218652
vt -0.08157907 0.04412554
vt -0.09452966 0.03087296
vt -0.03679682 0.01059174
vt -0.04232889 0.01500497
vt -0.05246421 0.000698196
vt 0 0
vt 0 0
vt 0 0
vt 0 0
vt 0 0
vt 0.09003384 0.01471144
vt 0.09475676 0.034622
vt 0.08469238 0.04773982
vt -0.01166165 -0.00718323
vt -0.0252569 -0.0165927
vt -0.02084009 -0.02212192
vt 0.07952237 -0.03077089
vt 0.09196259 0.005745874
vt 0.08599342 0.01905473
vt 0.009121352 -0.03934007
vt 0.02180164 -0.02931007
vt 0.0148609 -0.01920995
vt -0.1014859 0.009752182
vt -0.0764571 -0.04195596
vt -0.06935125 -0.02783298
vt 0.06946362 -0.02099901
vt 0.06296372 -0.03580245
vt 0.07798168 -0.0276447
vt -0.06470979 0.02193533
vt -0.05056255 0.05782527
vt -0.05768777 0.05473141
vt -0.01538694 -0.02844629
vt -0.0212995 -0.01945825
vt -0.02278282 -0.03082151
vt 0.008893155 0.03004644
vt -0.02744709 0.02032494
vt -0.02251826 0.00492698
vt 0.01272259 0.02062143
vt 0.08768746 -0.02992407
vt 0.09134264 0.007516023
vt 0.08508389 0.01136691
vt -0.06749696 0.002341803
vt -0.07477356 0.001315962
vt -0.07161196 -0.008353557
vt 0.0855375 -0.01371121
vt 0.09020328 0.001768488
vt 0.07659611 -0.007647036
vt -0.008306412 0.05616158
vt -0.04202995 0.03742777
vt -0.02740234 0.02858918
vt 0.03307634 0.09014791
vt 0.04515705 0.06909949
vt 0.04137822 0.07868671
vt 0.0621018 0.03805402
vt 0.06828499 0.02924995
vt 0.06975546 0.04120797
vt -0.01881173 0.05792847
vt -0.006599326 0.07434779
vt -0.01550465 0.07235428
vt -0.01579052 0.0878233
vt 0.01422459 0.1448471
vt -0.02454049 0.08523162
vt 0.0469073 0.03687701
vt 0.03632075 0.02863313
vt 0.04479129 0.0292099
vt -0.02800869 0.07455818
vt -0.06451789 0.1002279
vt -0.08331339 0.1096263
vt 0.09617884 0.08869279
vt 0.07690316 0.08032332
vt 0.03694024 0.04935414
vt 0.05519841 0.07275918
vt 0.05449356 0.08343676
vt 0.04872494 0.08534387
vt 0.09160446 0.007196803
vt 0.09025701 0.0112925
vt 0.08471847 0.002602339
vt 0.0429424 0.05237379
vt 0.03447517 0.05175037
vt 0.03525399 0.03972749
vt 0.09061863 0.001637302
vt 0.1397749 0.03958007
vt 0.1051036 0.02180417
vt 0.09774063 0.04600425
vt 0.1337866 0.0567775
vt 0.08346231 0.05572719
vt -0.08318909 0.06601809
vt -0.1335124 0.06711417
vt -0.07057801 0.04407359
vt 0.05449245 0.06584683
vt 0.07950902 0.1280222
vt 0.05162272 0.07825968
vt -0.08136468 0.0293762
vt -0.08799328 0.02055131
vt -0.06992133 0.01374625
vt -0.04815046 0.09405858
vt -0.0535844 0.07346204
vt -0.01755198 0.01367035
vt -0.01852954 0.01083766
vt -0.08574443 0.02969343
vt -0.07514593 0.0134787
vt -0.08484849 0.04002731
vt -0.09827355 0.03808234
vt -0.01577875 0.01372782
vt 0.002894894 0.01692136
vt -0.001997425 0.001511764
vt 0.0117732 -0.02057653
vt 0.02377781 0.01171027
vt -0.0006303646 0.01580206
vt 0.002608612 -0.02259618
vt 0.0520588 0.05773462
vt 0.007683349 0.01609217
vt 0.02771256 0.001554901
vt -0.06446016 -0.004924738
vt -0.05895606 0.004641969
vt -0.07914708 0.01142929
vt -0.028006 0.01211215
vt -0.0565349 0.05046688
vt -0.05862647 0.02365102
vt -0.01203854 0.02037838
vt -0.06510102 0.04833127
vt -0.07876545 0.0521559
vt 0.02597868 0.05581821
vt 0.01949371 0.03089624
vt 0.03316771 -0.007025906
vt -0.04530698 0.04511759
vt -0.008849104 0.03524463
vt -0.007687381 0.06097029
vt -0.07156968 0.04733815
vt -0.04738447 0.04179388
vt -0.04706334 0.06344478
vt 0.06120089 0.02673936
vt 0.04398035 0.03440548
vt 0.01040332 -0.01920093
vt 0.07034628 0.001373
vt 0.06041135 0.02684796
vt 0.008440845 -0.01776113
vt 0.07808008 0.02669615
vt 0.00828373 0.006111058
vt 0.01723243 -0.01972685
vt 0.07842658 0.0398777
vt 0.06254012 0.04732098
vt -0.001282526 0.005081167
vt 0.05433505 0.02609769
vt 0.09561165 0.05529302
vt 0.05652907 0.03374283
vt 0.09661461 0.02718914
vt 0.09020171 0.01862282
vt 0.09185901 0.0146424
vt -0.003165842 -0.01226649
vt 0.003443203 -0.02847531
vt 0.0347007 -0.008709609
vt -0.003165842 -0.01226649
vt 0.0347007 -0.008709609
vt 0.05572482 0.002887663
vt 0.05273743 0.03509768
vt 0.07367761 0.05838722
vt 0.04178227 0.0310949
vt -0.07568924 0.0245787
vt -0.1186346 0.05516947
vt -0.0888153 0.02129219
vt -0.06712942 0.04176568
vt -0.09588353 0.07924727
vt -0.08457691 0.05259945
o group224438928
g mesh224438928
usemtl mat17
f 3/3/1 2/2/1 1/1/1
f 2/6/2 4/5/2 1/4/2
f 6/9/3 5/8/3 1/7/3
f 8/12/4 7/11/4 1/10/4
f 10/15/5 9/14/5 1/13/5
f 12/18/6 11/17/6 1/16/6
f 14/21/7 13/20/7 1/19/7
f 13/24/8 16/23/8 15/22/8
f 15/27/9 17/26/9 1/25/9
f 17/30/10 19/29/10 18/28/10
f 18/33/11 21/32/11 20/31/11
f 20/36/12 22/35/12 3/34/12
f 29/43/13 28/42/13 27/41/13 26/40/13 25/39/13 24/38/13 23/37/13
f 29/46/14 16/45/14 13/44/14
f 19/51/15 31/50/15 30/49/15 21/48/15 18/47/15
f 15/55/16 16/54/16 29/53/16 17/52/16
f 21/58/17 30/57/17 32/56/17
f 20/62/18 32/61/18 33/60/18 22/59/18
f 22/65/19 35/64/19 34/63/19
f 34/68/20 23/67/20 36/66/20
f 38/71/21 28/70/21 37/69/21
f 40/74/22 39/73/22 11/72/22
f 42/77/23 41/76/23 9/75/23
f 5/82/24 44/81/24 24/80/24 25/79/24 43/78/24
f 23/85/25 24/84/25 44/83/25
f 45/88/26 44/87/26 5/86/26
f 46/91/27 36/90/27 44/89/27
f 47/94/28 4/93/28 36/92/28
f 47/97/29 1/96/29 4/95/29
f 47/101/30 48/100/30 45/99/30 6/98/30
f 1/104/31 49/103/31 6/102/31
f 47/107/32 49/106/32 1/105/32
f 5/110/33 6/109/33 45/108/33
f 50/113/34 45/112/34 48/111/34
f 36/116/35 48/115/35 47/114/35
f 51/119/36 44/118/36 45/117/36
f 51/122/37 48/121/37 44/120/37
f 51/125/38 50/124/38 52/123/38
f 48/128/39 52/127/39 50/126/39
f 51/131/40 52/130/40 48/129/40
f 45/134/41 50/133/41 51/132/41
f 53/137/42 48/136/42 36/135/42
f 53/140/43 44/139/43 48/138/43
f 53/143/44 46/142/44 54/141/44
f 44/146/45 54/145/45 46/144/45
f 53/149/46 54/148/46 44/147/46
f 36/152/47 46/151/47 53/150/47
f 55/155/48 26/154/48 41/153/48
f 56/158/49 25/157/49 26/156/49
f 57/161/50 43/160/50 25/159/50
f 58/164/51 7/163/51 43/162/51
f 58/167/52 9/166/52 7/165/52
f 58/173/53 57/172/53 56/171/53 55/170/53 42/169/53 59/168/53
f 9/176/54 59/175/54 42/174/54
f 58/179/55 59/178/55 9/177/55
f 41/182/56 42/181/56 55/180/56
f 26/185/57 55/184/57 56/183/57
f 25/188/58 56/187/58 57/186/58
f 43/191/59 57/190/59 58/189/59
f 60/194/60 7/193/60 9/192/60
f 60/197/61 1/196/61 7/195/61
f 60/200/62 10/199/62 61/198/62
f 62/203/63 43/202/63 7/201/63
f 63/206/64 5/205/64 43/204/64
f 63/209/65 1/208/65 5/207/65
f 63/212/66 62/211/66 8/210/66
f 1/215/67 61/214/67 10/213/67
f 60/218/68 61/217/68 1/216/68
f 9/221/69 10/220/69 60/219/69
f 1/224/70 64/223/70 8/222/70
f 63/227/71 64/226/71 1/225/71
f 7/230/72 8/229/72 62/228/72
f 43/233/73 62/232/73 63/231/73
f 65/236/74 41/235/74 11/234/74
f 66/239/75 9/238/75 41/237/75
f 66/242/76 1/241/76 9/240/76
f 66/245/77 65/244/77 12/243/77
f 1/248/78 67/247/78 12/246/78
f 66/251/79 67/250/79 1/249/79
f 11/254/80 12/253/80 65/252/80
f 41/257/81 65/256/81 66/255/81
f 68/260/82 27/259/82 39/258/82
f 69/263/83 26/262/83 27/261/83
f 70/266/84 41/265/84 26/264/84
f 70/269/85 11/268/85 41/267/85
f 70/274/86 69/273/86 68/272/86 40/271/86 71/270/86
f 11/277/87 71/276/87 40/275/87
f 70/280/88 71/279/88 11/278/88
f 39/283/89 40/282/89 68/281/89
f 27/286/90 68/285/90 69/284/90
f 26/289/91 69/288/91 70/287/91
f 72/292/92 27/291/92 28/290/92
f 73/295/93 39/294/93 27/293/93
f 73/298/94 37/297/94 39/296/94
f 73/302/95 72/301/95 38/300/95 74/299/95
f 37/305/96 74/304/96 38/303/96
f 73/308/97 74/307/97 37/306/97
f 28/311/98 38/310/98 72/309/98
f 27/314/99 72/313/99 73/312/99
f 75/317/100 37/316/100 13/315/100
f 76/320/101 39/319/101 37/318/101
f 77/323/102 11/322/102 39/321/102
f 77/326/103 1/325/103 11/324/103
f 77/329/104 76/328/104 14/327/104
f 1/332/105 78/331/105 14/330/105
f 77/335/106 78/334/106 1/333/106
f 13/338/107 14/337/107 75/336/107
f 37/341/108 75/340/108 76/339/108
f 39/344/109 76/343/109 77/342/109
f 15/347/110 1/346/110 13/345/110
f 18/350/111 1/349/111 17/348/111
f 20/353/112 1/352/112 18/351/112
f 3/356/113 1/355/113 20/354/113
f 36/359/114 4/358/114 79/357/114
f 34/362/115 79/361/115 2/360/115
f 36/365/116 79/364/116 34/363/116
f 34/368/117 2/367/117 3/366/117
f 23/371/118 34/370/118 35/369/118
f 23/374/119 35/373/119 33/372/119
f 33/377/120 35/376/120 22/375/120
f 2/380/121 79/379/121 4/378/121
f 44/383/122 36/382/122 23/381/122
f 3/386/123 22/385/123 34/384/123
f 23/389/124 33/388/124 30/387/124
f 30/392/125 33/391/125 32/390/125
f 21/395/126 32/394/126 20/393/126
f 23/398/127 30/397/127 31/396/127
f 23/401/128 31/400/128 29/399/128
f 29/404/129 31/403/129 19/402/129
f 29/407/130 19/406/130 17/405/130
f 14/410/131 78/409/131 77/408/131
f 76/413/132 75/412/132 14/411/132
f 37/416/133 28/415/133 29/414/133
f 13/419/134 37/418/134 29/417/134
f 12/422/135 67/421/135 66/420/135
f 6/425/136 49/424/136 47/423/136
f 8/428/137 64/427/137 63/426/137
